<?xml version="1.0" encoding="UTF-8" standalone="no"?>
<!-- Created with Inkscape (http://www.inkscape.org/) -->

<svg
   width="256.75208mm"
   height="56.828159mm"
   viewBox="0 0 256.75208 56.828159"
   version="1.1"
   id="svg8357"
   inkscape:version="1.2.2 (b0a8486541, 2022-12-01)"
   sodipodi:docname="nifi-logo.svg"
   xmlns:inkscape="http://www.inkscape.org/namespaces/inkscape"
   xmlns:sodipodi="http://sodipodi.sourceforge.net/DTD/sodipodi-0.dtd"
   xmlns="http://www.w3.org/2000/svg"
   xmlns:svg="http://www.w3.org/2000/svg">
  <sodipodi:namedview
     id="namedview8359"
     pagecolor="#ffffff"
     bordercolor="#666666"
     borderopacity="1.0"
     inkscape:showpageshadow="2"
     inkscape:pageopacity="0.0"
     inkscape:pagecheckerboard="0"
     inkscape:deskcolor="#d1d1d1"
     inkscape:document-units="mm"
     showgrid="false"
     inkscape:zoom="1.3400135"
     inkscape:cx="519.0246"
     inkscape:cy="294.02688"
     inkscape:window-width="2207"
     inkscape:window-height="1480"
     inkscape:window-x="49"
     inkscape:window-y="0"
     inkscape:window-maximized="1"
     inkscape:current-layer="layer1" />
  <defs
     id="defs8354" />
  <g
     inkscape:label="Capa 1"
     inkscape:groupmode="layer"
     id="layer1"
     transform="translate(513.46926,147.96916)">
    <g
       id="g3340"
       transform="translate(-455.15338,-139.15809)">
      <path
         style="fill:#1072b1;fill-opacity:1;stroke:#1171b3;stroke-width:0.5;stroke-linecap:butt;stroke-linejoin:miter;stroke-dasharray:none;stroke-opacity:1"
         d="m -27.971969,-8.3797528 -30.040463,17.3072861 7.514944,21.8593887 c 0,0 5.7633,0.40462 12.601699,-0.16142 6.8384,-0.56603 10.109274,-1.78884 10.109274,-1.78884 z"
         id="path1022" />
      <path
         style="fill:#1072b1;fill-opacity:1;stroke:#1171b3;stroke-width:0.5;stroke-linecap:butt;stroke-linejoin:miter;stroke-dasharray:none;stroke-opacity:1"
         d="M -24.780943,-8.3762048 V 28.202152 c 0,0 4.098658,-1.37633 5.88907,-2.06714 1.677758,-0.647351 3.301229,-1.648757 4.405332,-2.341578 0.632928,-0.372195 1.401839,-1.234953 2.528082,-0.545034 0.374137,0.260066 0.464565,0.975192 -0.08837,2.171504 -1.503713,3.352918 -2.911153,6.406105 -4.487578,9.753905 l 12.7320478,-0.0119 8.8439288,-26.6784737 z"
         id="path1024"
         sodipodi:nodetypes="ccsccccccc" />
      <path
         style="fill:#1072b1;fill-opacity:1;stroke:#1171b3;stroke-width:0.5;stroke-linecap:butt;stroke-linejoin:miter;stroke-dasharray:none;stroke-opacity:1"
         d="m -44.688135,47.766083 36.3870256,10e-4 1.0764925,-2.922317 -38.2530581,-0.024 z"
         id="path1026" />
      <path
         style="fill:#1072b1;fill-opacity:1;stroke:#1171b3;stroke-width:0.5;stroke-linecap:butt;stroke-linejoin:miter;stroke-dasharray:none;stroke-opacity:1"
         d="m -46.405373,42.098163 40.4290944,-0.12993 1.277308,-3.740847 -14.9531544,0.15985 c 0,0 -0.919996,-0.0627 -1.168454,-0.3656 -0.284976,-0.34736 0.04479,-1.17748 0.04479,-1.17748 l 3.500088,-7.244814 c 0.716787,-1.43945 -0.897814,-0.55257 -2.984057,0.19281 0,0 -8.517825,2.813337 -13.814156,3.233337 -5.296328,0.42 -15.362041,0.64609 -15.362041,0.64609 z"
         id="path1028"
         sodipodi:nodetypes="ccccscccscc" />
    </g>
    <g
       id="g8330"
       transform="translate(-349.40318,-137.09877)">
      <path
         style="fill:#1272b4;fill-opacity:1;stroke-width:0.264583"
         d="m 80.58826,2.2315276 c 0,4.1378867 -0.0609,5.7651467 -0.0245,12.6046234 l 0.0165,12.621971 3.90366,-0.006 8.20181,0.0342 2.8e-4,2.30834 c 0,1.598887 -2.2e-4,1.682077 -2.2e-4,2.779137 -0.90892,0.003 -9.76926,0.009 -14.90739,-0.0247 l -2.65362,0.0407 c 0,-6.147657 0.0596,-12.962491 0.0519,-18.071308 V 1.8468076 h 2.52184 c 1.775,0 2.89238,-0.005 2.89238,-0.005 z"
         id="path8178-7"
         sodipodi:nodetypes="cccccccccccccc" />
      <path
         style="fill:#1272b4;fill-opacity:1;stroke-width:0.264583"
         d="m 58.53613,32.189299 c 0,-4.137887 0.0609,-5.765147 0.0245,-12.604621 l -0.0165,-12.6219737 -3.90366,0.006 -3.96848,-0.0342 -2.8e-4,-2.3083367 c 0,-1.59889 2.2e-4,-1.68208 2.2e-4,-2.77914 0.90892,-0.003 5.53593,-0.009 10.67406,0.0247 l 10.70251,-0.03 c -0.0221,1.19616 -9.8e-4,2.41207 -0.0209,3.4790967 l -0.013,1.64008 -3.67959,-0.0514 c -1.95263,0 -4.404,0.0525 -4.404,0.0525 0,0 0.0167,1.62957 0.0167,12.9404137 v 12.671681 h -2.52184 c -1.775,0 -2.89238,0.005 -2.89238,0.005 z"
         id="path8131-3-5"
         sodipodi:nodetypes="cccccccccccccccccc" />
      <path
         style="fill:#1272b4;fill-opacity:1;stroke-width:0.264583"
         d="m 29.5088,32.397819 c -0.0989,-0.0989 -0.17981,-7.006044 -0.17981,-15.349241 V 1.8791476 h 9.12813 9.12812 v 2.50884 2.5088267 l -6.41614,0.0709 -6.41615,0.0709 v 3.8364567 3.83646 l 5.35781,0.0716 5.35782,0.0716 v 2.508067 2.50806 h -5.43123 -5.43122 l 0.0734,3.770307 0.0734,3.770317 6.55831,0.0708 6.5583,0.0708 -0.076,2.44275 -0.076,2.442747 -9.01447,0.0696 c -4.95796,0.0383 -9.09538,-0.0114 -9.19427,-0.11024 z"
         id="path8133-3" />
      <path
         style="fill:#1272b4;fill-opacity:1;stroke-width:0.264583"
         d="m -79.599617,32.161079 c 0,-4.137887 0.06092,-5.765147 0.02451,-12.604621 l -0.0165,-12.6219737 -3.903664,0.006 -3.968481,-0.0342 -2.73e-4,-2.3083367 c 0,-1.59889 2.16e-4,-1.68208 2.16e-4,-2.77914 0.908923,-0.003 5.535925,-0.009 10.674058,0.0247 l 10.702511,-0.03 c -0.02209,1.19616 -9.81e-4,2.41207 -0.02087,3.4790967 l -0.013,1.64008 -3.679593,-0.0514 c -1.952631,0 -4.403997,0.0525 -4.403997,0.0525 0,0 0.01673,1.62957 0.01673,12.9404137 v 12.671681 h -2.521844 c -1.774994,0 -2.892372,0.005 -2.892372,0.005 z"
         id="path8131-5"
         sodipodi:nodetypes="cccccccccccccccccc" />
      <path
         id="path8127-6"
         style="fill:#1272b4;fill-opacity:1;stroke-width:0.264583"
         d="m 8.54045,32.321249 c -9.74518,-3.470067 -10.812,-17.098008 -1.7179,-21.945108 10.48754,-5.5897967 21.61268,4.88836 16.69816,15.727081 -2.40022,5.293577 -9.40777,8.202287 -14.98026,6.218027 z m 7.63695,-5.392947 c 6.20116,-3.634117 3.67229,-13.006311 -3.49057,-12.936321 -7.63724,0.0746 -9.84595,10.063704 -2.937,13.282791 1.72638,0.80437 4.74111,0.64187 6.42757,-0.34647 z" />
      <path
         style="fill:#1272b4;fill-opacity:1;stroke-width:0.264583"
         d="m -37.213715,32.941459 c -0.43657,-0.0571 -1.41883,-0.23188 -2.18282,-0.38848 l -1.389059,-0.28472 v -2.378487 -2.37849 l 1.256769,0.21466 c 4.84704,0.82784 7.75204,0.033 7.73065,-2.115207 -0.0149,-1.49408 -1.0802,-2.21781 -3.96383,-2.6928 -3.79322,-0.62482 -5.611551,-2.783167 -5.611551,-6.660857 0,-5.545237 4.981231,-8.5734837 11.766611,-7.1532937 l 0.99219,0.20767 v 2.2369667 2.23697 l -3.10886,10e-4 c -6.1535,0.002 -7.40574,4.042747 -1.52135,4.909177 4.02643,0.59286 5.92827,2.599357 6.16135,6.500407 0.3274,5.479617 -3.73021,8.582074 -10.1301,7.745494 z"
         id="path8121-2" />
      <path
         id="path8117-9"
         style="fill:#1272b4;fill-opacity:1;stroke-width:0.264583"
         d="m -14.482417,32.847289 c -12.015476,-1.858447 -13.358387,-19.979578 -1.746425,-23.5661447 7.50579,-2.3183 13.796122,3.0117967 13.805832,11.6985207 4.4e-4,0.38971 -0.0263,1.86222 -0.044,2.12565 -1.61072,0.0455 -0.9413,0.0525 -8.456862,-0.0251 -5.909181,-0.061 -6.248602,0.0126 -8.083559,0.0335 -0.126809,0.23665 0.169973,0.97688 0.434365,1.49513 1.658764,3.251447 5.867358,4.180897 12.514011,2.763687 l 0.727605,-0.15514 v 2.38359 2.383587 l -1.785938,0.41425 c -2.229215,0.51707 -5.595937,0.72205 -7.365055,0.44842 z m 1.75287,-19.061898 c -3.368076,-0.0162 -6.046119,3.043197 -6.295042,4.866477 0,0 3.363444,0.0382 6.124766,0.0316 2.514087,-0.006 5.448521,-0.0163 5.448521,-0.0163 -0.208832,-2.93056 -1.857409,-4.694267 -5.278245,-4.881767 z"
         sodipodi:nodetypes="csscscsscccssccscccc" />
      <path
         id="path8117-6-1"
         style="fill:#1272b4;fill-opacity:1;stroke-width:0.264583"
         d="M -56.585925,32.658389 C -68.601401,30.799942 -69.944312,12.678811 -58.33235,9.0922443 c 7.50579,-2.3183 13.796118,3.0117967 13.805837,11.6985207 4.36e-4,0.38971 -0.02633,1.86222 -0.04397,2.12565 -1.610728,0.0455 -0.941308,0.0525 -8.456867,-0.0251 -5.909181,-0.061 -6.248602,0.0126 -8.083559,0.0335 -0.126809,0.23665 0.169973,0.97688 0.434365,1.49513 1.658764,3.251447 5.867358,4.180897 12.514011,2.763687 l 0.727605,-0.15514 v 2.38359 2.383587 l -1.785938,0.41425 c -2.229215,0.51707 -5.595937,0.72205 -7.365055,0.44842 z m 1.75287,-19.061898 c -3.368076,-0.0162 -6.046119,3.043197 -6.295042,4.866477 0,0 3.363444,0.0382 6.124766,0.0316 2.514087,-0.006 5.448521,-0.0163 5.448521,-0.0163 -0.208832,-2.93056 -1.857409,-4.694267 -5.278245,-4.881767 z"
         sodipodi:nodetypes="csscscsscccssccscccc" />
    </g>
  </g>
</svg>
